<svg class="svg-icon" style="width: 1em;height: 1em;vertical-align: middle;fill: currentColor;overflow: hidden;" viewBox="0 0 1024 1024" version="1.1" xmlns="http://www.w3.org/2000/svg"><path d="M788.4 515.7v1.1c-1.6 17.6-88.2 57.4-254.6 57.4-168 0-254.6-40.6-254.6-57.9v-77.6c60 25.3 150.4 39.5 254.6 39.5 71.6 0 172.4-6.3 246.1-36.4 24.8-10.1 40.6-34 40.2-61l-1.5-134.1c0-65.9-183.7-83.5-292.3-83.5S234 180.7 234 246.7v40.4c0 65.9 183.7 83.5 292.3 83.5 34.2 0 67.8-1.5 99.4-4.4 10.3 19 30.7 31.7 54.1 30.7 29.8-1.3 54.5-25.8 55.8-55.6 1.5-33.5-25.2-61.2-58.4-61.2-29 0-53 21.1-57.6 48.9-29.6 2.6-61.1 4-93.3 4-67.1 0-131.3-5.9-180.5-16.6-54.3-11.8-71.8-25.5-74.1-29.8v-39.2c2.2-4.3 19.7-18.1 74.1-29.8 49.3-10.7 113.4-16.6 180.5-16.6s131.3 5.9 180.5 16.6c54.4 11.8 71.9 25.5 74.1 29.9l1.5 134c0.1 11.2-6.6 21.5-16.8 25.6-53 21.6-135.4 33.6-231.8 33.6-114.1 0-212.7-18.1-263.8-48.4l-5.4-3.2c-10.2-6-23.1 1.3-23.1 13.1v114.3C241.5 582 393 612 533.8 612c96.9 0 198.9-14.2 253-44.5l-1.6 54.6c-0.2 5.6-3.4 10.6-8.4 12.9-54.3 25.6-143.6 40.3-244.9 40.3-113.2 0-211-18.4-261.8-49.3l-10.3-6.3c-8.1-4.9-18.4 0.9-18.4 10.3v122.2c0 66.8 150.5 97.2 290.4 97.2 139.9 0 290.4-30.4 290.4-97.2h-37.7c0 17.8-86 59.5-252.7 59.5S279.1 770 279.1 752.2v-79.5c59.7 25.7 149.3 40.2 252.7 40.2 106.7 0 201.8-16 261-43.9 17.9-8.5 29.4-26.1 30-45.9l3.1-104.7c-0.8-0.9-1.3-1.4-2.2-2.3l-35.3-0.4z" fill="#1E88E5" /></svg>